<svg data-v-423bf9ae="" xmlns="http://www.w3.org/2000/svg" viewBox="0 0 225.0476224067439 60" class="font"><!----><!----><!----><g data-v-423bf9ae="" id="69d7f849-da22-478a-93c1-e97a987d0b00" fill="black" transform="matrix(4.761904617736313,0,0,4.761904617736313,-3.28571289124487,-20.190475442962814)"><path d="M3.68 13.85C5.77 13.85 6.65 12.32 6.65 10.33C6.65 8.25 5.66 7.03 3.68 7.03C1.64 7.03 0.69 8.44 0.69 10.33C0.69 12.47 1.57 13.85 3.68 13.85ZM3.68 12.92C2.52 12.92 1.89 12.08 1.89 10.47C1.89 8.88 2.52 7.95 3.68 7.95C4.83 7.95 5.45 8.85 5.45 10.47C5.45 11.96 4.83 12.92 3.68 12.92ZM8.41 16.84L9.53 16.84L9.53 12.96C9.91 13.50 10.60 13.85 11.41 13.85C13.29 13.85 14.25 12.24 14.25 10.23C14.25 8.62 13.66 7.03 11.66 7.03C10.67 7.03 9.93 7.49 9.49 8.15L9.49 7.22L8.41 7.22ZM11.31 12.92C9.95 12.92 9.53 11.59 9.53 10.50C9.53 9.39 9.94 7.95 11.42 7.95C12.70 7.95 13.05 8.89 13.05 10.32C13.05 11.63 12.75 12.92 11.31 12.92ZM15.23 8.12L16.32 8.12L16.32 11.76C16.32 12.78 16.63 13.79 17.91 13.79C18.87 13.79 19.32 13.22 19.61 12.50L18.76 12.12C18.62 12.63 18.40 12.87 18.05 12.87C17.60 12.87 17.44 12.50 17.44 11.70L17.44 8.12L19.26 8.12L19.26 7.22L17.44 7.22L17.44 5.32L16.42 5.32L16.35 7.22L15.23 7.22ZM20.75 5.00C20.75 5.43 21.07 5.75 21.50 5.75C21.92 5.75 22.26 5.43 22.26 5.00C22.26 4.58 21.92 4.24 21.50 4.24C21.07 4.24 20.75 4.58 20.75 5.00ZM20.96 13.65L22.08 13.65L22.08 7.22L20.96 7.22ZM24.23 13.65L25.35 13.65L25.35 10.22C25.48 9.65 26.00 7.99 27.44 7.99C28.11 7.99 28.45 8.36 28.45 9.32L28.45 13.65L29.57 13.65L29.57 10.22C29.69 9.65 30.21 7.99 31.65 7.99C32.33 7.99 32.66 8.36 32.66 9.32L32.66 13.65L33.78 13.65L33.78 9.00C33.78 7.63 32.93 7.03 31.84 7.03C30.21 7.03 29.62 8.23 29.48 8.58C29.27 7.42 28.55 7.03 27.62 7.03C26.11 7.03 25.51 8.06 25.31 8.50L25.31 7.22L24.23 7.22ZM35.81 11.89C35.81 13.26 36.61 13.85 37.73 13.85C39.20 13.85 39.83 12.95 40.07 12.47L40.12 13.65L41.15 13.65L41.15 7.22L40.03 7.22L40.03 10.85C39.83 11.54 39.27 12.88 37.91 12.88C37.24 12.88 36.93 12.52 36.93 11.56L36.93 7.22L35.81 7.22ZM42.83 11.86C42.69 13.27 44.11 13.85 45.42 13.85C46.89 13.85 47.95 13.12 47.95 11.84C47.95 9.46 44.18 10.36 44.18 8.75C44.18 8.20 44.66 7.95 45.39 7.95C46.54 7.95 46.70 8.64 46.62 9.09L47.74 8.89C47.96 7.64 46.80 7.03 45.44 7.03C43.82 7.03 43.04 7.87 43.04 8.95C43.04 11.28 46.77 10.49 46.77 12.05C46.77 12.64 46.20 12.92 45.37 12.92C44.30 12.92 43.82 12.38 43.89 11.69Z"></path></g><!----><!----></svg>